<svg xmlns="http://www.w3.org/2000/svg" width="529" height="514" viewBox="0 0 529 514" version="1.1"><path d="M 213.359 28.550 C 211.363 30.546, 210.956 31.687, 211.489 33.800 C 211.863 35.285, 214.619 48.425, 217.613 63 C 220.607 77.575, 223.278 90.219, 223.548 91.098 C 224.093 92.874, 228.106 95, 230.912 95 C 233.987 95, 238.002 91.125, 237.981 88.177 C 237.971 86.705, 235.336 72.716, 232.125 57.092 C 227.630 35.213, 225.866 28.375, 224.453 27.342 C 221.413 25.119, 216.225 25.684, 213.359 28.550 M 301.529 51.316 C 300.694 52.589, 298.666 60.275, 297.021 68.395 C 294.283 81.914, 294.156 83.402, 295.518 86.035 C 297.243 89.371, 302.682 90.922, 306.523 89.172 C 309.197 87.953, 309.918 85.784, 312.962 69.802 C 315.634 55.777, 315.602 52.535, 312.777 50.557 C 309.306 48.126, 303.356 48.527, 301.529 51.316 M 399.837 57.750 C 397.106 60.710, 368.277 103.114, 367.346 105.541 C 365.696 109.841, 370.567 115, 376.276 115 C 379.405 115, 380.786 113.362, 393.566 94.500 C 415.507 62.117, 415.413 62.322, 410.545 57.455 C 407.218 54.127, 403.074 54.241, 399.837 57.750 M 139.452 88.646 C 135.381 93.038, 135.182 92.592, 151.796 116.327 C 156.577 123.157, 159.866 126, 162.988 126 C 163.460 126, 165.231 124.835, 166.923 123.411 C 171.805 119.303, 171.164 116.595, 162.260 103.717 C 151.302 87.869, 149.518 86, 145.349 86 C 142.909 86, 141.189 86.772, 139.452 88.646 M 248.443 121.875 C 213.372 128.260, 179.667 148.036, 157.046 175.500 C 140.587 195.483, 127.989 220.981, 122.461 245.500 C 121.505 249.739, 120.664 259.796, 120.328 271 C 119.852 286.854, 120.067 291.216, 121.834 301.500 C 125.378 322.127, 131.610 339.732, 140.231 353.471 C 145.353 361.632, 155.385 374.094, 161.590 380 L 167.368 385.500 162.650 380.104 C 140.836 355.155, 128.562 324.845, 126.052 289.727 C 122.903 245.662, 137.102 207.724, 168.442 176.469 C 192.837 152.140, 217.564 139.362, 251.500 133.548 C 262.798 131.613, 282.591 131.570, 295 133.455 C 333.300 139.271, 367.873 160.168, 393.234 192.830 C 397.646 198.512, 401.869 203.396, 402.619 203.684 C 403.778 204.129, 408.096 203.001, 416.304 200.108 C 417.860 199.560, 417.174 198.175, 411.304 190.012 C 386.939 156.131, 351.284 132.634, 309.500 122.920 C 296.328 119.858, 262.686 119.282, 248.443 121.875 M 59.073 137.635 C 56.186 141.305, 56.429 145.095, 59.750 148.184 C 61.263 149.590, 72.964 157.775, 85.754 166.371 C 110.333 182.891, 112.960 184.040, 116.975 180.025 C 119.608 177.392, 120.506 173.406, 119.140 170.408 C 118.504 169.012, 113.413 164.995, 107.263 161.036 C 101.343 157.226, 89.975 149.812, 82 144.560 C 65.840 133.920, 62.733 132.981, 59.073 137.635 M 454 137.319 C 445.160 141.938, 423.694 156.676, 422.948 158.638 C 421.853 161.517, 423.558 166.693, 426.039 168.021 C 430.259 170.280, 433.488 169, 449 158.922 C 457.525 153.383, 465.063 148.124, 465.750 147.235 C 467.712 144.697, 467.223 141.132, 464.545 138.455 C 461.809 135.718, 457.875 135.294, 454 137.319 M 260.500 146.974 C 223.475 150.632, 189.846 170.787, 165.707 203.787 C 155.491 217.753, 144.690 244.068, 143.503 257.887 L 143.021 263.500 144.403 257 C 146.870 245.402, 150.194 235.698, 155.104 225.757 C 165.757 204.187, 177.193 191.549, 199.758 176.405 C 229.607 156.374, 271.126 149.383, 304 158.852 C 327.424 165.599, 351.198 180.721, 366.700 198.731 C 369.936 202.491, 373.268 206.545, 374.104 207.738 C 375.593 209.864, 375.745 209.877, 381.562 208.362 C 384.828 207.512, 387.673 206.647, 387.885 206.440 C 388.610 205.731, 373.658 188.850, 366.575 182.379 C 353.398 170.342, 334.371 159.131, 317.511 153.472 C 300.684 147.823, 278.034 145.242, 260.500 146.974 M 262 170.047 C 237.227 172.528, 213.653 183.523, 195.347 201.136 C 187.063 209.107, 182.252 214.585, 188.559 208.865 C 210.488 188.978, 236.919 177.733, 265.083 176.308 C 278.985 175.604, 289.597 176.977, 301.589 181.030 C 316.964 186.227, 331.677 195.690, 343.255 207.828 L 348.890 213.736 354.093 212.386 C 356.956 211.643, 359.543 210.791, 359.843 210.491 C 360.842 209.491, 347.614 197.011, 339 190.825 C 316.794 174.880, 288.904 167.354, 262 170.047 M 487.500 215.545 C 486.515 215.926, 450.548 221.480, 403.500 228.517 C 390.300 230.492, 378.519 232.509, 377.321 233 C 375.968 233.554, 373.764 236.796, 371.507 241.554 C 365.439 254.339, 336.445 319.173, 334.529 324.239 C 331.394 332.527, 327.426 332, 392.967 332 C 446.677 332, 450.799 331.878, 452.259 330.250 C 453.121 329.288, 456.303 322.200, 459.328 314.500 C 462.354 306.800, 468.732 290.600, 473.501 278.500 C 491.387 233.125, 496 221.071, 496 219.710 C 496 216.598, 491.049 214.172, 487.500 215.545 M 47.828 235.639 C 43.598 240.347, 44.807 247.132, 50.188 248.880 C 53.340 249.904, 82.962 255, 85.761 255 C 86.492 255, 88.195 253.895, 89.545 252.545 C 92.662 249.429, 92.746 244.951, 89.750 241.580 C 87.766 239.347, 85.847 238.804, 73.500 236.980 C 50.318 233.556, 49.727 233.525, 47.828 235.639 M 343 238.682 C 293.209 246.849, 273.072 250.481, 271.263 251.620 C 270.032 252.395, 268.107 254.830, 266.984 257.032 C 264.167 262.553, 236.357 324.300, 235.570 326.781 C 235.178 328.014, 235.551 329.409, 236.537 330.395 C 237.953 331.810, 242.488 332, 274.897 332 L 311.651 332 313.828 329.683 C 315.026 328.408, 317.069 324.696, 318.368 321.433 C 319.668 318.170, 323.087 310.100, 325.966 303.500 C 331.202 291.497, 337.251 277.272, 346.913 254.238 C 353.409 238.754, 352.979 237.046, 343 238.682 M 81.500 314.575 C 80.950 314.804, 70.031 316.954, 57.235 319.354 C 32.889 323.919, 30 325.007, 30 329.608 C 30 333.184, 31.978 336.669, 34.717 337.917 C 36.706 338.823, 40.185 338.530, 51.857 336.470 C 78.674 331.737, 92.543 329.112, 94.308 328.435 C 98.063 326.995, 99.246 320.224, 96.443 316.223 C 95.107 314.315, 94.010 314.011, 88.693 314.079 C 85.287 314.122, 82.050 314.345, 81.500 314.575 M 223.295 349.014 C 220.546 350.121, 220.616 349.980, 201.113 393.237 C 192.251 412.893, 185 430.050, 185 431.365 C 185 432.680, 185.569 434.227, 186.263 434.804 C 186.958 435.380, 194.271 436.997, 202.513 438.397 C 210.756 439.797, 224.025 442.111, 232 443.539 C 253.059 447.311, 259.107 447.690, 261.077 445.363 C 262.660 443.492, 264.863 438.622, 280.004 403.500 C 284.510 393.050, 291.302 377.462, 295.098 368.860 C 298.894 360.258, 302 352.511, 302 351.645 C 302 350.779, 301.130 349.605, 300.066 349.035 C 297.660 347.747, 226.490 347.728, 223.295 349.014 M 322.181 350.497 C 320.165 353.061, 317.973 357.874, 300.779 397.500 C 281.388 442.188, 279 447.879, 279 449.397 C 279 451.750, 281.438 452.582, 295.500 455.027 C 302.650 456.270, 313 458.081, 318.500 459.052 C 365.594 467.363, 392.056 471.296, 394.227 470.306 C 396.119 469.445, 399.538 461.695, 412.726 428.375 C 445.253 346.195, 443.946 349.961, 440.418 348.607 C 439.548 348.273, 413.031 348, 381.491 348 L 324.145 348 322.181 350.497 M 122 380.717 C 117.862 382.376, 92.016 400.102, 91.018 401.966 C 89.232 405.303, 90.736 409.868, 94.345 412.069 C 96.080 413.127, 98.006 413.994, 98.625 413.996 C 100.002 414.001, 126.426 396.809, 130.250 393.421 C 131.831 392.020, 133 389.949, 133 388.548 C 133 383.780, 126.285 379, 122 380.717" stroke="none" fill="#fafafb" fill-rule="evenodd"/></svg>
