<svg xmlns="http://www.w3.org/2000/svg" width="1024" height="1024" viewBox="0 0 1024 1024" version="1.1"><path d="M 264.500 257.880 C 257.242 259.982, 255.034 261.105, 248.281 266.133 C 242.279 270.601, 235.830 279.557, 232.679 287.800 L 230.500 293.500 230.234 490.500 C 230.048 628.664, 230.291 689.059, 231.049 692.719 C 233.868 706.342, 243.613 718.527, 256.678 724.765 L 264.500 728.500 281.750 728.849 L 299 729.198 299 737.665 C 299 742.321, 299.447 746.966, 299.992 747.986 C 301.487 750.778, 306.865 752.102, 315.924 751.909 C 327.983 751.651, 329 750.603, 329 738.427 L 329 729 332.750 729.001 L 336.500 729.003 336.802 737.751 C 337.255 750.856, 338.600 752, 353.548 752 C 359.941 752, 361.228 751.679, 363.923 749.411 C 366.935 746.877, 367 746.634, 367 737.911 L 367 729 371 729 L 375 729 375 737.889 C 375 750.557, 375.731 751.303, 388.629 751.799 C 404.260 752.401, 405.664 751.224, 406.196 737.084 L 406.500 729.016 410.250 729.008 L 414 729 414 738.500 C 414 751.634, 414.405 752, 428.943 752 C 441.555 752, 442.477 751.421, 443.623 742.786 L 444.258 738 448.572 738 C 453.312 738, 456 735.567, 456 731.277 L 456 729 552 729 L 648 729 648 736.889 C 648 743.165, 648.391 745.261, 649.911 747.139 L 651.821 749.500 683.700 749.789 L 715.578 750.078 718.039 747.460 C 720.226 745.134, 720.500 743.961, 720.500 736.923 L 720.500 729.004 737.145 729.002 C 751.022 729, 754.878 728.664, 760.338 726.977 C 774.413 722.630, 786.889 710.576, 790.962 697.388 C 792.984 690.843, 793 689.194, 793 492.984 C 793 301.656, 792.938 294.979, 791.105 289.091 C 786.278 273.582, 773.611 261.738, 757.307 257.492 C 752.303 256.188, 721.187 256.009, 511.040 256.071 C 285.704 256.138, 270.121 256.252, 264.500 257.880 M 505 260.994 L 265.500 261.500 259 264.610 C 255.425 266.321, 250.429 269.563, 247.897 271.816 C 243.038 276.139, 236.993 286.464, 235.052 293.756 C 234.228 296.854, 233.905 351.195, 233.867 493.432 C 233.809 711.342, 233.231 693.858, 240.885 705.701 C 245.536 712.896, 253.387 719.170, 261.640 722.287 L 267.500 724.500 508 724.796 C 685.019 725.014, 750.084 724.791, 754.500 723.951 C 772.186 720.589, 785.674 707.110, 788.907 689.566 C 789.674 685.404, 789.995 626.734, 789.983 493.066 C 789.964 289.532, 790.108 295.814, 785.213 284.749 C 782.247 278.043, 773.040 268.786, 765.786 265.216 C 760.269 262.501, 748.337 259.581, 745.500 260.251 C 744.950 260.381, 636.725 260.716, 505 260.994 M 454.892 439.341 C 447.720 442.308, 443.918 445.043, 439.546 450.379 C 433.211 458.109, 431.514 463.205, 431.507 474.515 C 431.500 483.822, 431.732 485.003, 434.787 491.213 C 438.566 498.895, 444.454 504.599, 452.876 508.737 L 458.500 511.500 511 511.500 L 563.500 511.500 569.285 509.165 C 577.392 505.893, 585.915 497.761, 589.599 489.782 C 592.156 484.245, 592.500 482.373, 592.500 474 C 592.500 465.831, 592.134 463.729, 589.890 459 C 586.019 450.844, 579.960 444.598, 572.220 440.787 L 565.545 437.500 513.023 437.260 L 460.500 437.020 454.892 439.341" stroke="none" fill="#131413" fill-rule="evenodd"/></svg>
