<?xml version="1.0" encoding="utf-8"?>
<!-- Svg Vector Icons : http://www.onlinewebfonts.com/icon -->
<!DOCTYPE svg PUBLIC "-//W3C//DTD SVG 1.1//EN" "http://www.w3.org/Graphics/SVG/1.1/DTD/svg11.dtd">
<svg version="1.1" xmlns="http://www.w3.org/2000/svg" xmlns:xlink="http://www.w3.org/1999/xlink" x="0px" y="0px" viewBox="0 0 1000 1000" enable-background="new 0 0 1000 1000" xml:space="preserve">
<metadata> Svg Vector Icons : http://www.onlinewebfonts.com/icon </metadata>
<g><g transform="translate(0.000000,511.000000) scale(0.100000,-0.100000)"><path d="M1726.9,4981.3c-104.7-33.4-229.3-164.8-262.7-273.9c-40.1-133.6-40.1-9057.7,0-9191.3c35.6-115.8,160.3-240.5,276.1-276.1c133.6-40.1,6385.8-40.1,6519.4,0c115.8,35.6,240.5,160.3,276.1,276.1c40.1,133.6,40.1,9057.7,0,9191.3c-35.6,115.8-160.3,240.5-276.1,276.1C8135,5019.2,1844.9,5019.2,1726.9,4981.3z M8028.2,111.8v-4364.1H5000H1971.9V111.8v4364.1H5000h3028.2V111.8z"/><path d="M2150,3674.3v-623.4h1336h1335.9v623.4v623.4H3485.9H2150V3674.3z"/><path d="M5178.1,3674.3v-623.4h1335.9H7850v623.4v623.4H6514.1H5178.1V3674.3z"/><path d="M2150,2249.3v-623.4h803.8h803.8l66.8,55.7c193.7,162.5,614.5,342.9,881.7,378.5l115.8,15.6v398.5v398.6H3485.9H2150V2249.3z"/><path d="M5178.1,2474.2v-398.5l118-15.6c260.5-35.6,590.1-171.4,839.4-347.3l124.7-86.8h794.9H7850v623.4v623.4H6514.1H5178.1V2474.2z"/><path d="M4516.8,672.9c-267.2-605.6-438.6-1019.8-423-1022c15.6-4.5,273.9,46.8,578.9,111.3c454.2,98,550,113.6,550,84.6c0-17.8-44.5-313.9-100.2-654.6c-55.7-342.9-98-630.2-95.7-641.3c4.4-8.9,209.3,440.9,456.4,999.7c244.9,558.9,445.3,1022,440.8,1026.5c-4.5,4.5-260.5-46.8-565.6-111.3c-307.3-64.6-565.5-111.3-572.2-102.4c-6.7,6.7,33.4,305,91.3,661.3c57.9,356.3,100.2,652.4,95.7,656.8C4968.8,1686,4764,1231.8,4516.8,672.9z"/><path d="M2150,824.3V200.9h440.9h440.9l26.7,184.8c49,342.9,182.6,652.4,385.2,904c60.1,75.7,109.1,140.3,109.1,147c0,6.7-316.2,11.1-701.4,11.1H2150V824.3z"/><path d="M6447.3,1436.6c0-6.7,49-71.3,109.1-147c202.6-251.6,336.2-561.1,385.2-904l26.7-184.8h440.9H7850v623.4v623.4h-701.4C6763.5,1447.7,6447.3,1443.3,6447.3,1436.6z"/><path d="M2150-600.7v-623.4h701.4c385.2,0,701.4,4.5,701.4,11.1c0,6.7-51.2,73.5-113.6,149.2c-198.1,247.1-354,625.7-389.6,948.5l-15.6,138.1h-440.9H2150V-600.7z"/><path d="M6941.6-162.1c-49-342.9-182.6-652.4-385.2-904c-60.1-75.7-109.1-140.3-109.1-147c0-6.7,316.2-11.1,701.4-11.1H7850v623.4V22.7h-440.9h-440.9L6941.6-162.1z"/><path d="M2150-2025.7v-623.5h1336h1335.9v398.6v398.6l-115.8,15.6c-267.2,35.6-625.7,184.8-841.6,349.6l-111.3,84.6h-801.6H2150V-2025.7z"/><path d="M6128.9-1489.1c-202.6-160.3-567.8-309.5-832.8-347.3l-118-15.6v-398.6v-398.6h1335.9H7850v623.5v623.4l-806-2.2l-808.2-2.2L6128.9-1489.1z"/><path d="M2150-3450.7v-623.4h1336h1335.9v623.4v623.5H3485.9H2150V-3450.7z"/><path d="M5178.1-3450.7v-623.4h1335.9H7850v623.4v623.5H6514.1H5178.1V-3450.7z"/></g></g>
</svg>