<?xml version="1.0" standalone="no"?>
<!DOCTYPE svg PUBLIC "-//W3C//DTD SVG 20010904//EN"
 "http://www.w3.org/TR/2001/REC-SVG-20010904/DTD/svg10.dtd">
<svg version="1.0" xmlns="http://www.w3.org/2000/svg"
 width="128.000000pt" height="128.000000pt" viewBox="0 0 128.000000 128.000000"
 preserveAspectRatio="xMidYMid meet">
<g transform="translate(0.000000,128.000000) scale(0.100000,-0.100000)"
fill="#000000" stroke="none">
<path d="M322 1258 c-9 -9 -12 -160 -12 -619 l0 -607 31 -11 c18 -6 62 -11 99
-11 61 0 68 2 78 24 9 21 20 25 79 30 37 4 85 8 106 10 23 3 40 -1 45 -8 4 -7
21 -16 37 -21 33 -8 123 -7 137 1 4 3 8 271 8 595 0 463 -3 591 -12 594 -22 8
-410 35 -498 35 -54 0 -91 -5 -98 -12z m48 -8 c0 -5 -6 -10 -14 -10 -9 0 -12
-7 -9 -20 3 -11 0 -20 -6 -20 -15 0 -14 47 2 53 20 9 27 8 27 -3z m30 -90 c0
-60 -4 -100 -10 -100 -6 0 -10 40 -10 100 0 60 4 100 10 100 6 0 10 -40 10
-100z m255 80 c94 -6 185 -13 203 -16 l32 -5 0 -91 0 -90 -42 5 c-24 4 -130 9
-235 13 l-193 7 0 99 0 99 33 -5 c17 -3 109 -10 202 -16z m252 -157 c-2 -27
-3 -5 -3 47 0 52 1 74 3 48 2 -27 2 -69 0 -95z m-537 48 c0 -60 -2 -69 -20
-74 -19 -5 -20 0 -20 63 0 57 3 69 18 73 9 3 18 5 20 6 1 0 2 -30 2 -68z m-7
-248 c-3 -139 -6 -169 -18 -171 -13 -3 -15 21 -15 161 0 161 2 172 31 176 3 1
4 -74 2 -166z m37 -4 c0 -111 -3 -168 -10 -164 -6 4 -10 72 -10 171 0 103 4
164 10 164 6 0 10 -64 10 -171z m328 155 l162 -7 0 -159 0 -160 -235 3 -235 4
0 169 0 168 73 -6 c39 -3 145 -8 235 -12z m179 -246 c-1 -46 -3 -9 -3 82 0 91
2 128 3 83 2 -46 2 -120 0 -165z m-545 -242 c-2 -131 -5 -154 -17 -149 -12 4
-15 33 -15 154 0 135 2 149 18 149 16 0 17 -13 14 -154z m38 -1 c0 -97 -4
-155 -10 -155 -6 0 -10 58 -10 155 0 97 4 155 10 155 6 0 10 -58 10 -155z
m490 3 l0 -148 -182 0 c-101 0 -207 -3 -235 -6 l-53 -7 0 158 0 157 235 -3
235 -3 0 -148z m17 -75 c-1 -43 -3 -8 -3 77 0 85 2 120 3 78 2 -43 2 -113 0
-155z m-17 -226 l0 -144 -237 -15 c-131 -8 -238 -14 -238 -14 0 1 1 70 3 153
l3 152 147 4 c81 1 186 4 235 5 l87 2 0 -143z m17 -74 c-1 -43 -3 -10 -3 72 0
83 2 118 3 78 2 -40 2 -107 0 -150z m-547 56 c0 -116 -3 -150 -12 -147 -10 4
-14 45 -16 151 -2 126 0 147 13 147 13 0 15 -22 15 -151z m40 -4 c0 -97 -4
-155 -10 -155 -6 0 -10 58 -10 155 0 97 4 155 10 155 6 0 10 -58 10 -155z
m488 -152 c-2 -13 -13 -18 -38 -18 -25 0 -36 5 -38 18 -3 14 4 17 38 17 34 0
41 -3 38 -17z m19 -5 c-3 -8 -6 -5 -6 6 -1 11 2 17 5 13 3 -3 4 -12 1 -19z
m-120 6 c-3 -3 -12 -4 -19 -1 -8 3 -5 6 6 6 11 1 17 -2 13 -5z m-427 -24 c0
-13 -5 -18 -15 -14 -8 4 -15 12 -15 20 0 8 7 14 15 14 8 0 15 -9 15 -20z m144
-4 c-4 -10 -18 -16 -40 -16 -19 0 -37 0 -41 0 -5 0 -8 6 -8 13 0 7 18 14 45
17 54 6 52 7 44 -14z m-104 -6 c0 -11 -4 -20 -10 -20 -5 0 -10 9 -10 20 0 11
5 20 10 20 6 0 10 -9 10 -20z"/>
<path d="M556 1195 c-22 -23 -20 -51 6 -69 16 -12 47 -16 109 -16 96 0 116 11
105 55 -7 28 -17 31 -127 40 -63 5 -80 3 -93 -10z m64 -34 c0 -5 -7 -14 -16
-21 -12 -11 -18 -10 -31 3 -23 22 0 52 28 36 10 -5 19 -13 19 -18z m48 -12
c-17 -10 -28 -2 -21 17 4 11 8 12 20 3 11 -10 11 -14 1 -20z m75 13 c11 -16 0
-32 -22 -32 -24 0 -30 7 -24 29 5 21 34 23 46 3z"/>
<path d="M580 1160 c0 -5 5 -10 11 -10 5 0 7 5 4 10 -3 6 -8 10 -11 10 -2 0
-4 -4 -4 -10z"/>
</g>
</svg>
