<svg xmlns="http://www.w3.org/2000/svg" width="831" height="781" viewBox="0 0 831 781" version="1.1"><path d="M 237.003 23.250 C 237.005 23.938, 236.993 188.474, 236.978 388.888 C 236.953 721.500, 237.090 753.489, 238.553 755.721 C 241.766 760.625, 244.531 761.001, 277.218 760.985 C 293.873 760.976, 307.978 760.639, 308.562 760.235 C 309.146 759.831, 312.460 754.100, 315.926 747.500 C 319.392 740.900, 322.659 734.966, 323.185 734.312 C 324.587 732.572, 506.035 732.546, 508.289 734.286 C 509.153 734.954, 512.155 740.069, 514.961 745.654 C 517.766 751.239, 520.980 756.976, 522.103 758.404 L 524.145 761 555.105 761 C 588.485 761, 591.228 760.633, 594.431 755.746 C 596.131 753.152, 596.031 789.403, 596.006 181.750 L 596 22 416.500 22 C 273.565 22, 237.001 22.255, 237.003 23.250 M 250 26.853 C 250 27.247, 251.388 28.388, 253.083 29.390 C 256.162 31.209, 256.166 31.208, 255.833 28.962 C 255.594 27.347, 254.724 26.631, 252.750 26.425 C 251.238 26.266, 250 26.459, 250 26.853 M 261 80 L 261 134 415.500 134 L 570 134 570 80 L 570 26 415.500 26 L 261 26 261 80 M 575 29.170 C 575 32.039, 575.013 32.045, 577.950 30.526 C 579.573 29.687, 581.823 29, 582.950 29 C 584.817 29, 586.004 27.102, 584.250 26.923 C 575.633 26.044, 575 26.198, 575 29.170 M 247.333 27.667 C 247.700 28.033, 248.300 28.033, 248.667 27.667 C 249.033 27.300, 248.733 27, 248 27 C 247.267 27, 246.967 27.300, 247.333 27.667 M 586.333 27.667 C 586.700 28.033, 587.300 28.033, 587.667 27.667 C 588.033 27.300, 587.733 27, 587 27 C 586.267 27, 585.967 27.300, 586.333 27.667 M 241.241 82.250 L 241.500 133.500 248.750 133.794 L 256 134.088 256 85.194 L 256 36.300 249.750 33.647 C 246.313 32.188, 242.933 30.996, 242.241 30.997 C 241.242 30.999, 241.035 41.584, 241.241 82.250 M 582.500 33.960 L 575.500 36.730 575.240 85.365 L 574.981 134 583.490 134 L 592 134 592 82.500 C 592 41.916, 591.735 31.020, 590.750 31.095 C 590.063 31.147, 586.350 32.437, 582.500 33.960 M 385.532 50.731 C 382.435 51.517, 377.232 55.889, 374.897 59.667 C 368.343 70.271, 372.013 83.395, 383.115 89.059 C 386.633 90.853, 389.170 90.998, 416.710 90.978 C 449.562 90.954, 451.309 90.669, 457.186 84.376 C 460.805 80.501, 462 76.966, 462 70.131 C 462 62.206, 458.260 56.305, 450.919 52.647 L 445.607 50 416.554 50.116 C 400.574 50.180, 386.614 50.457, 385.532 50.731 M 241 239 L 241 340 248.500 340 L 256 340 256 239 L 256 138 248.500 138 L 241 138 241 239 M 261 239 L 261 340 415.500 340 L 570 340 570 239 L 570 138 415.500 138 L 261 138 261 239 M 575 239 L 575 340 583.500 340 L 592 340 592 239 L 592 138 583.500 138 L 575 138 575 239 M 241.245 438.750 L 241.500 533.500 248.750 533.794 L 256 534.088 256 439.044 L 256 344 248.495 344 L 240.990 344 241.245 438.750 M 261 439 L 261 534 415.500 534 L 570 534 570 439 L 570 344 415.500 344 L 261 344 261 439 M 575 439 L 575 534 583.500 534 L 592 534 592 439 L 592 344 583.500 344 L 575 344 575 439 M 241.667 538.667 C 241.300 539.033, 241 581.756, 241 633.606 L 241 727.879 244.750 728.190 C 246.813 728.360, 250.188 728.340, 252.250 728.145 L 256 727.790 256 632.895 L 256 538 249.167 538 C 245.408 538, 242.033 538.300, 241.667 538.667 M 261 633.250 L 261.001 728.500 390.250 728.420 C 461.338 728.377, 530.862 728.264, 544.750 728.170 L 570 728 570 633 L 570 538 415.500 538 L 261 538 261 633.250 M 575.245 633.111 L 575.500 728.222 583.500 728.361 L 591.500 728.500 591.755 633.250 L 592.010 538 583.500 538 L 574.990 538 575.245 633.111 M 241 741.444 C 241 748.823, 241.291 750.227, 243.309 752.573 C 245.101 754.656, 246.780 755.369, 250.809 755.756 L 256 756.254 256 744.627 L 256 733 248.500 733 L 241 733 241 741.444 M 261 744.502 L 261 756.038 283.637 755.769 L 306.275 755.500 312.137 744.582 C 315.362 738.577, 318 733.536, 318 733.380 C 318 733.224, 305.175 733.067, 289.500 733.032 L 261 732.967 261 744.502 M 519.704 744.268 L 525.515 755.500 547.758 755.769 L 570 756.038 570 744.535 L 570 733.032 541.947 733.034 L 513.893 733.036 519.704 744.268 M 575 744.500 L 575 756 580.750 755.978 C 584.859 755.962, 587.213 755.408, 589 754.036 C 591.306 752.266, 591.527 751.373, 591.847 742.558 L 592.193 733 583.597 733 L 575 733 575 744.500" stroke="none" fill="#191b1c" fill-rule="evenodd"/></svg>
