<?xml version="1.0" standalone="no"?>
<!DOCTYPE svg PUBLIC "-//W3C//DTD SVG 20010904//EN"
 "http://www.w3.org/TR/2001/REC-SVG-20010904/DTD/svg10.dtd">
<svg version="1.0" xmlns="http://www.w3.org/2000/svg"
 width="256.000000pt" height="256.000000pt" viewBox="0 0 256.000000 256.000000"
 preserveAspectRatio="xMidYMid meet">
<g transform="translate(0.000000,256.000000) scale(0.100000,-0.100000)"
fill="#000000" stroke="none">
<path d="M1735 2335 c-58 -8 -97 -9 -108 -3 -24 13 -163 -6 -202 -26 -32 -17
-105 -21 -121 -7 -12 11 -173 -11 -182 -26 -11 -17 -96 -27 -122 -13 -28 15
-200 -6 -200 -25 0 -17 -95 -27 -125 -13 -30 14 -189 -5 -209 -25 -8 -7 -61
-19 -122 -26 -60 -7 -119 -15 -131 -18 l-23 -5 0 -249 c0 -238 1 -249 20 -261
19 -12 20 -24 20 -305 0 -286 0 -293 -20 -293 -19 0 -20 -7 -20 -213 l0 -212
168 -126 169 -127 249 49 c486 96 1121 218 1237 240 l117 21 0 43 0 43 50 11
c28 6 58 11 65 11 12 0 15 16 15 74 l0 74 65 7 65 7 0 357 0 356 -45 27 -44
27 -3 88 -3 88 -82 45 -82 45 -1 128 0 127 -52 24 c-29 13 -87 40 -129 60 -83
39 -83 39 -214 21z m216 -50 c52 -24 88 -45 82 -45 -7 0 -131 -16 -274 -35
-144 -19 -498 -64 -788 -100 -289 -36 -532 -68 -540 -70 -10 -4 -191 91 -191
100 0 1 44 8 97 14 54 7 106 14 116 17 11 3 17 0 17 -9 0 -9 24 -30 53 -48
l52 -32 100 14 c94 13 100 15 103 39 3 17 -4 31 -25 47 l-28 23 38 0 c20 0 37
-4 37 -9 0 -5 25 -24 55 -41 l55 -31 95 12 95 12 0 33 c0 24 -5 34 -20 39 -30
9 -24 25 9 25 16 0 31 -6 34 -15 4 -8 29 -26 58 -40 50 -26 53 -26 138 -15 47
6 86 12 87 13 3 3 6 41 5 54 0 6 -11 15 -23 19 -22 7 -22 8 6 15 23 6 32 4 42
-9 7 -10 35 -28 62 -41 48 -22 53 -23 136 -11 85 12 86 12 86 41 0 19 -7 32
-22 41 -21 11 -15 14 57 24 44 6 85 12 91 13 6 0 54 -19 105 -44z m-301 15
c43 -23 14 -28 -31 -5 -23 12 -40 14 -72 7 -41 -9 -41 -9 -14 -17 15 -4 27
-11 27 -16 0 -13 -4 -12 -47 13 l-38 23 30 6 c56 12 110 8 145 -11z m-320 -35
c30 -16 38 -24 25 -24 -11 0 -29 6 -39 14 -12 9 -41 15 -70 15 -46 -1 -49 -2
-32 -15 10 -8 24 -16 30 -18 6 -2 8 -7 5 -11 -3 -3 -26 5 -49 18 l-43 24 39 7
c21 3 46 8 54 10 29 6 35 4 80 -20z m170 5 c36 -18 53 -40 32 -40 -9 0 -82 49
-82 55 0 9 10 5 50 -15z m200 -14 c0 -9 -16 -17 -42 -21 -24 -3 -55 -8 -70
-11 -21 -4 -28 -2 -28 9 0 11 16 17 58 22 31 4 62 8 67 10 6 2 11 4 13 4 1 1
2 -5 2 -13z m-478 -50 c13 -20 0 -18 -41 6 -22 13 -41 28 -41 35 0 13 69 -22
82 -41z m-199 22 c30 -16 37 -23 25 -26 -10 -2 -31 6 -47 17 -24 17 -38 20
-76 14 l-48 -6 29 -15 c16 -8 24 -17 18 -19 -6 -2 -29 6 -50 19 l-39 23 40 6
c76 12 106 9 148 -13z m367 -12 c0 -9 -17 -16 -47 -20 -27 -4 -60 -9 -75 -12
-21 -4 -28 -2 -28 10 0 10 14 17 48 21 26 3 54 8 62 9 32 7 40 6 40 -8z m700
6 c0 -4 -17 -9 -37 -10 -21 -2 -67 -7 -103 -12 -75 -11 -116 -13 -107 -4 7 7
160 31 210 33 20 0 37 -3 37 -7z m-1375 -46 c30 -23 -1 -20 -41 5 -27 16 -42
19 -80 13 l-47 -7 29 -15 c16 -8 24 -17 18 -19 -6 -2 -29 6 -49 19 -43 25 -43
25 40 36 61 9 85 3 130 -32z m155 19 c34 -22 52 -45 35 -45 -13 0 -85 51 -85
60 0 15 6 13 50 -15z m955 -5 c3 -5 2 -10 -3 -10 -5 0 -94 -11 -198 -25 -197
-26 -242 -30 -230 -18 3 4 97 19 209 34 111 14 205 27 209 28 4 0 10 -3 13 -9z
m283 -102 l-3 -113 -85 -12 c-47 -6 -101 -14 -122 -17 l-36 -6 -1 114 -1 113
102 15 c167 25 149 36 146 -94z m-1028 88 c0 -9 -19 -16 -57 -21 -32 -3 -69
-9 -81 -12 -20 -5 -23 -2 -20 13 2 15 15 20 58 25 94 10 100 10 100 -5z m-540
-21 c34 -22 52 -45 34 -45 -15 0 -84 47 -84 58 0 17 5 16 50 -13z m1302 -91
l1 -98 -339 -48 c-186 -26 -426 -60 -531 -76 l-193 -28 0 39 c0 40 -19 85 -44
106 -14 11 -23 61 -12 61 12 0 1093 141 1101 144 6 2 11 2 13 1 2 -2 4 -47 4
-101z m-1092 72 c0 -9 -24 -17 -77 -25 -81 -12 -89 -11 -80 13 6 14 34 19 125
24 21 1 32 -3 32 -12z m630 -5 c0 -4 -28 -11 -62 -14 -35 -4 -88 -10 -118 -13
-30 -4 -51 -3 -47 2 4 4 47 13 95 20 113 15 132 16 132 5z m-948 -255 l3 -119
83 -51 82 -50 0 -102 0 -102 50 -31 50 -31 0 -350 c0 -192 -3 -350 -7 -350 -5
0 -33 16 -63 35 -30 19 -58 35 -62 35 -4 0 -8 -43 -8 -95 l0 -95 -83 55 -82
55 -3 -90 -3 -90 -84 63 -84 62 -1 193 c0 190 0 193 20 182 20 -11 20 -8 20
314 0 315 -1 326 -20 336 -19 10 -20 21 -20 240 l0 229 105 -62 104 -62 3
-119z m702 226 c6 -10 -422 -67 -431 -58 -4 3 -4 7 -2 9 4 3 371 53 411 56 9
0 19 -3 22 -7z m-450 -59 c4 -5 -39 -13 -96 -20 -127 -14 -158 -15 -158 -5 0
5 42 13 93 19 125 13 152 14 161 6z m16 -43 c0 -17 -7 -20 -40 -20 -76 0 -120
-53 -120 -143 0 -42 -2 -45 -31 -51 -55 -11 -54 -13 -54 98 l0 104 100 12 c55
6 105 13 110 15 24 8 35 4 35 -15z m21 -69 c27 -27 29 -35 29 -99 l0 -70 -36
-12 c-41 -14 -107 -8 -129 10 -10 9 -15 33 -15 77 0 58 3 67 29 94 20 20 39
29 61 29 22 0 41 -9 61 -29z m1514 -47 c-14 -5 -1031 -147 -1344 -189 l-255
-34 -78 48 c-42 27 -75 51 -71 55 13 12 43 5 79 -19 68 -46 214 -26 214 29 0
20 5 26 21 26 12 0 249 32 527 71 373 53 510 69 522 61 12 -7 51 -5 136 7
l119 17 70 -34 c39 -19 66 -36 60 -38z m35 -87 l0 -73 -312 -48 c-172 -26
-531 -81 -798 -122 -267 -40 -495 -76 -507 -79 -22 -5 -23 -3 -23 79 l0 84 38
6 c20 4 136 20 257 36 402 53 1269 176 1338 189 4 0 7 -32 7 -72z m36 -119
c21 -12 33 -23 28 -25 -5 -1 -362 -57 -794 -123 -432 -66 -791 -123 -798 -125
-7 -3 -33 8 -57 23 l-45 28 737 113 c406 62 758 116 783 121 76 13 107 11 146
-12z m54 -372 l0 -334 -27 -6 c-16 -4 -284 -49 -598 -101 -676 -113 -974 -164
-998 -171 -16 -5 -17 14 -15 342 l3 348 375 58 c787 120 1235 190 1239 194 18
17 21 -36 21 -330z m-130 -444 l0 -58 -107 -22 c-60 -12 -169 -34 -243 -47
-206 -39 -476 -90 -780 -150 -487 -95 -446 -90 -478 -65 -25 20 -27 28 -32
111 -3 49 -4 89 -3 89 2 0 25 -14 52 -30 45 -28 53 -30 93 -21 50 12 359 66
428 76 25 4 162 27 305 51 143 25 303 52 355 60 52 8 156 26 230 38 194 34
180 37 180 -32z m-130 -140 c0 -28 -1 -29 -97 -46 -54 -9 -110 -20 -124 -22
-24 -5 -25 -3 -21 24 4 30 6 31 106 50 137 27 136 27 136 -6z m-263 -49 c-2
-26 -6 -28 -117 -50 -63 -12 -301 -59 -528 -103 -227 -45 -419 -83 -427 -87
-11 -4 -15 3 -15 26 0 24 5 32 23 36 12 2 227 45 477 94 250 50 475 94 500 99
80 17 89 15 87 -15z m-1366 -75 c33 -32 35 -36 38 -111 l2 -79 -45 34 -45 33
-1 78 c0 42 4 77 8 77 4 0 24 -15 43 -32z m123 -88 c51 -38 56 -40 95 -31 41
9 41 9 41 -19 0 -32 -3 -34 -100 -50 -36 -6 -72 -13 -80 -15 -13 -4 -16 9 -18
75 -1 44 0 80 3 80 3 0 30 -18 59 -40z"/>
<path d="M390 2105 c0 -2 6 -8 13 -14 10 -8 14 -7 14 2 0 8 -6 14 -14 14 -7 0
-13 -1 -13 -2z"/>
<path d="M286 982 c-3 -5 1 -9 9 -9 8 0 12 4 9 9 -3 4 -7 8 -9 8 -2 0 -6 -4
-9 -8z"/>
<path d="M977 1300 c-111 -35 -170 -176 -117 -281 27 -52 72 -79 133 -79 120
0 195 88 185 217 -9 106 -104 174 -201 143z m123 -38 c111 -81 59 -271 -81
-297 -57 -10 -134 28 -99 50 6 3 10 0 10 -7 0 -9 3 -9 10 2 7 12 10 12 10 1 0
-9 6 -11 18 -6 18 8 44 13 75 14 19 1 23 26 5 37 -6 4 -18 -2 -26 -12 -12 -15
-14 -16 -9 -2 4 12 2 15 -9 11 -7 -3 -14 -10 -14 -17 0 -6 -5 -4 -10 4 -8 12
-10 12 -10 -5 0 -12 -3 -16 -8 -8 -10 15 -64 12 -58 -4 3 -7 1 -15 -3 -18 -12
-7 -41 68 -41 106 0 35 23 95 48 123 48 54 138 67 192 28z"/>
<path d="M1020 1198 c0 -35 6 -74 13 -88 15 -29 48 -37 66 -16 11 13 7 14 -26
11 l-38 -5 35 11 c37 11 60 33 60 57 0 9 -15 2 -41 -19 -52 -41 -71 -29 -45
29 21 46 18 75 -7 80 -15 3 -17 -5 -17 -60z"/>
<path d="M961 1232 c-8 -14 -4 -30 15 -65 31 -59 23 -61 -13 -4 -15 23 -29 44
-31 47 -5 7 -22 -23 -22 -41 0 -8 17 -25 38 -37 20 -12 31 -22 23 -22 -7 0
-29 9 -47 21 -35 21 -43 14 -23 -22 8 -16 17 -19 47 -14 28 5 33 4 22 -4 -8
-6 -24 -11 -35 -11 -14 0 -16 -3 -7 -12 15 -15 53 4 67 35 15 33 7 147 -11
147 -7 0 -18 -8 -23 -18z"/>
<path d="M1062 1188 c-12 -28 -21 -53 -19 -54 2 -2 18 9 37 24 28 24 32 33 26
55 -3 15 -10 27 -14 27 -4 0 -17 -24 -30 -52z"/>
<path d="M1074 1064 c-13 -5 -7 -44 6 -44 22 0 40 14 40 31 0 18 -20 24 -46
13z m31 -13 c3 -5 1 -12 -5 -16 -5 -3 -10 1 -10 9 0 18 6 21 15 7z"/>
<path d="M1985 873 c-35 -9 -45 -24 -45 -70 l0 -45 43 7 c77 12 77 12 77 66 0
47 -1 49 -27 48 -16 -1 -37 -4 -48 -6z m51 -85 c-6 -4 -19 -8 -28 -8 -9 0 -23
-3 -32 -6 -13 -5 -16 2 -16 35 0 36 3 41 28 47 15 3 32 7 37 8 15 4 25 -67 11
-76z"/>
<path d="M1984 828 c-17 -27 -13 -39 14 -36 19 2 27 9 27 23 0 23 -29 32 -41
13z"/>
<path d="M1729 825 c-32 -11 -34 -15 -34 -56 l0 -44 44 2 c67 3 71 7 71 63 0
46 -2 50 -24 48 -13 -1 -39 -7 -57 -13z m63 -41 c5 -40 5 -40 -45 -49 l-37 -7
0 40 c0 42 7 48 56 51 18 1 23 -6 26 -35z"/>
<path d="M1730 785 c-19 -23 -6 -43 24 -38 29 6 36 37 10 47 -21 8 -20 8 -34
-9z"/>
<path d="M1390 771 l-155 -27 -3 -57 c-2 -31 1 -57 5 -57 14 0 337 60 351 65
7 3 12 24 12 55 0 61 11 59 -210 21z m193 5 c7 -19 -1 -26 -30 -26 -27 0 -32
26 -5 33 29 8 30 7 35 -7z m-73 -16 c0 -15 -7 -20 -25 -20 -32 0 -34 27 -2 33
12 2 23 5 25 6 1 0 2 -8 2 -19z m-70 -9 c0 -12 -9 -20 -25 -23 -19 -4 -25 -1
-25 13 0 10 9 19 23 22 12 2 23 5 25 6 1 0 2 -7 2 -18z m-75 -29 c-3 -4 -11 0
-16 8 -9 12 -10 12 -5 -2 4 -13 0 -18 -15 -18 -29 0 -20 33 11 40 24 6 41 -12
25 -28z m-67 1 c-2 -10 -13 -19 -26 -21 -17 -3 -22 2 -22 17 0 16 6 21 26 21
19 0 25 -5 22 -17z m288 0 c-2 -9 -15 -20 -29 -24 -22 -6 -27 -4 -27 10 0 23
9 31 36 31 15 0 21 -5 20 -17z m-76 -13 c0 -11 -4 -20 -9 -20 -5 0 -16 -3 -25
-6 -11 -4 -16 0 -16 14 0 20 12 30 38 31 6 1 12 -8 12 -19z m-82 -31 c-7 -5
-20 -9 -30 -9 -25 0 -11 38 16 42 24 3 35 -20 14 -33z m-58 6 c0 -21 -5 -25
-29 -25 -37 0 -37 31 0 41 13 4 25 7 27 8 1 1 2 -10 2 -24z m-70 -14 c0 -12
-9 -20 -25 -23 -19 -4 -25 -1 -25 12 0 22 9 30 32 30 11 0 18 -7 18 -19z"/>
<path d="M1400 690 c0 -5 5 -10 10 -10 6 0 10 5 10 10 0 6 -4 10 -10 10 -5 0
-10 -4 -10 -10z"/>
<path d="M1050 713 c-36 -8 -139 -27 -230 -42 l-165 -28 -3 -61 c-3 -57 -1
-62 18 -62 12 0 127 21 256 46 l234 47 0 58 c0 68 2 67 -110 42z m97 -13 c-1
-11 -6 -20 -12 -20 -6 0 -11 9 -12 20 -1 11 4 20 12 20 8 0 13 -9 12 -20z
m-31 -12 c2 -13 -5 -18 -22 -18 -18 0 -24 5 -24 21 0 15 5 20 22 17 11 -2 22
-11 24 -20z m-56 -8 c0 -11 -7 -20 -15 -20 -8 0 -15 2 -15 4 0 2 -3 11 -6 20
-4 12 0 16 15 16 14 0 21 -6 21 -20z m-84 -25 c-3 -8 -13 -15 -23 -15 -17 1
-16 2 1 15 19 15 19 15 -2 15 -13 0 -22 -6 -22 -15 0 -8 -4 -15 -9 -15 -23 0
-1 35 25 40 31 6 39 -1 30 -25z m37 15 c3 -13 0 -20 -9 -20 -8 0 -14 9 -14 20
0 11 4 20 9 20 5 0 11 -9 14 -20z m-113 -20 c0 -23 -10 -26 -28 -8 -6 6 -15 8
-19 4 -4 -4 -1 -11 7 -16 13 -8 12 -10 -2 -10 -11 0 -18 8 -18 19 0 18 14 27
48 30 6 0 12 -8 12 -19z m226 0 c-33 -6 -35 -27 -2 -22 20 2 20 2 3 -9 -11 -6
-29 -9 -43 -6 -13 2 -25 1 -26 -3 -2 -4 -17 -10 -34 -13 -28 -5 -31 -3 -31 18
0 31 53 44 74 18 13 -17 13 -17 11 2 -2 14 4 21 27 25 17 4 35 4 40 1 6 -3 -3
-8 -19 -11z m-306 -15 c0 -22 -4 -25 -36 -25 -59 0 -36 40 29 49 4 1 7 -10 7
-24z m-80 -14 c0 -11 -9 -21 -22 -25 -41 -11 -58 -7 -58 13 0 20 16 28 58 30
15 1 22 -5 22 -18z m240 -10 c0 -17 -25 -30 -56 -31 -17 0 -12 34 6 42 29 13
50 8 50 -11z m-80 -16 c0 -15 -6 -25 -14 -25 -8 0 -21 -3 -30 -6 -12 -5 -16 0
-16 19 0 25 3 27 53 36 4 0 7 -10 7 -24z m-82 -17 c-2 -18 -11 -24 -35 -26
-27 -3 -33 0 -33 17 0 21 12 29 48 30 19 1 23 -4 20 -21z m-78 -13 c0 -14 -4
-25 -9 -25 -5 0 -23 -3 -41 -6 -29 -6 -31 -5 -28 17 3 22 16 29 71 38 4 0 7
-10 7 -24z"/>
<path d="M1080 690 c0 -5 5 -10 10 -10 6 0 10 5 10 10 0 6 -4 10 -10 10 -5 0
-10 -4 -10 -10z"/>
<path d="M1018 618 c17 -8 26 -8 34 0 9 9 4 12 -22 11 -33 0 -34 -1 -12 -11z"/>
<path d="M770 630 c0 -5 5 -10 11 -10 5 0 7 5 4 10 -3 6 -8 10 -11 10 -2 0 -4
-4 -4 -10z"/>
<path d="M700 620 c-20 -12 -5 -24 16 -12 9 5 12 12 7 15 -5 3 -15 2 -23 -3z"/>
<path d="M850 590 c0 -5 5 -10 10 -10 6 0 10 5 10 10 0 6 -4 10 -10 10 -5 0
-10 -4 -10 -10z"/>
<path d="M770 570 c0 -13 11 -13 30 0 12 8 11 10 -7 10 -13 0 -23 -4 -23 -10z"/>
<path d="M691 554 c0 -11 3 -14 6 -6 3 7 2 16 -1 19 -3 4 -6 -2 -5 -13z"/>
<path d="M355 431 c-6 -11 13 -26 22 -17 4 3 1 6 -6 6 -7 0 -9 5 -6 10 3 6 4
10 1 10 -3 0 -7 -4 -11 -9z"/>
</g>
</svg>
