<svg xmlns="http://www.w3.org/2000/svg" viewBox="0 0 912 912">
  <path fill="#080808" fill-rule="evenodd" d="M420 1.597C309.806 5.901 265.137 17.974 229.252 53.153 198.347 83.45 184.846 118.83 177.033 190c-2.499 22.767-3.491 34.021-6.037 68.5-1.096 14.85-2.667 36-3.49 47-1.729 23.121-5.866 98.442-7.607 138.5-2.038 46.901-.073 80.75 6.097 105.022 9.536 37.515 42.194 141.167 65.213 206.978 17.249 49.315 28.194 74.055 39.619 89.55 22.063 29.922 52.088 46.472 98.672 54.388 27.492 4.672 63.067 7.28 124.5 9.126 59.651 1.793 82.945-.044 113-8.913 24.178-7.135 52.428-23.014 68.006-38.225 3.926-3.833 9.693-8.261 12.816-9.84s8.532-4.973 12.02-7.544c17.435-12.848 26.874-28.155 33.161-53.776 5.759-23.468 5.503-8.546 5.423-316.766-.077-293.137-.131-297.471-4.006-319.864-3.614-20.883-10.549-41.075-18.765-54.636-5.843-9.643-17.527-23.209-26.154-30.365-4.4-3.649-12.05-10.72-17-15.714-19.385-19.552-40.182-30.302-71.186-36.793-6.498-1.361-16.99-2.979-23.315-3.596-6.325-.618-13.975-1.751-17-2.519-10.199-2.59-27.412-5.483-42-7.059-13.882-1.499-77.573-2.694-99-1.857m4 14.072c-64.011 2.795-111.207 9.254-138 18.885-17.057 6.131-32.484 15.829-44.906 28.231-29.33 29.281-40.295 59.761-47.024 130.715-9.516 100.345-18.025 249.916-16.753 294.5.692 24.249 1.68 31.573 6.323 46.893 10.712 35.34 35.944 64.669 67.244 78.163 26.634 11.483 54.353 15.843 114.116 17.952 16.775.592 40.175 1.51 52 2.041 59.029 2.651 74.805 2.375 95-1.66 27.022-5.399 48.025-16.365 66.367-34.65C604.7 570.488 619.252 535.831 624.446 487c.849-7.975 2.683-28.9 4.076-46.5s3.203-40.1 4.022-50 2.384-29.925 3.478-44.5c1.093-14.575 2.874-37.525 3.956-51 6.203-77.208 7.373-96.929 7.447-125.5.077-29.834-.603-38.128-4.532-55.302-7.059-30.854-24.54-58.149-46.634-72.814-28.645-19.014-69.024-26.672-138.089-26.191-15.218.106-30.595.32-34.17.476M603.5 30.62c27.102 16.326 46.782 45.746 55.101 82.372 4.652 20.481 5.682 33.044 5.128 62.508-.28 14.85-1.449 38.7-2.598 53-2.531 31.477-7.273 95.267-10.668 143.5-1.374 19.525-3.816 52.375-5.427 73-1.61 20.625-3.202 42.225-3.537 48-1.733 29.885-6.23 53.911-14.538 77.689-7.969 22.804-17.123 41.354-26.243 53.178-8.368 10.848-24.389 22.855-40.195 30.123-22.709 10.441-46.911 15.525-80.193 16.843l-16.83.667 8.5 3.45c46.818 19 81.985 59.474 90.449 104.097 3.184 16.784 1.541 39.748-3.789 52.942-6.109 15.125-17.812 28.639-32.287 37.283-13.18 7.87-33.365 14.099-52.597 16.231-3.162.35-6.714 1.436-7.935 2.424l-2.21 1.791 4.434.605c10.036 1.37 60.978 1.86 77.671.748 36.191-2.412 58.782-7.861 83.523-20.146 10.662-5.294 12.876-6.741 23.89-15.624 16-12.904 28.416-35.134 34.815-62.335 5.404-22.966 5.251-16.772 6.054-244.466.41-116.05 1.287-240.025 1.95-275.5 1.472-78.819.861-100.89-3.627-131-1.773-11.894-6.742-29.879-11.328-41-14.648-35.52-41.936-61.899-74.368-71.888-9.509-2.929-10.066-2.662-3.145 1.508m86.522 57.663c-.012.431 1.045 2.906 2.349 5.5 4.423 8.801 9.927 27.057 12.563 41.674.591 3.276 1.825 12.951 2.743 21.5 1.525 14.203 1.65 41.065 1.45 311.543-.235 316.165-.136 309.682-5.045 330.59-1.7 7.239-4.823 17.37-7.525 24.41-1.853 4.83 6.808-6.81 10.79-14.5 6.763-13.062 10.307-25.321 13.441-46.5 1.464-9.899 1.659-37.075 1.941-271.5.193-160.802-.069-271.025-.686-288-1.636-45.06-5.543-66.836-16.366-91.218-3.414-7.69-15.585-25.96-15.655-23.499M386 213.538c-27.982 4.423-54.646 20.592-72.049 43.688-35.296 46.841-28.668 113.879 14.711 148.775 13.222 10.637 29.665 18.087 47.306 21.433 9.442 1.791 29.351 2.056 39.032.519 22.706-3.606 46.283-15.266 62.357-30.84 10.011-9.7 15.401-17.255 21.668-30.375 7.324-15.333 9.319-25.138 9.405-46.238.08-19.558-1.438-28.765-7.01-42.5-19.212-47.359-64.305-72.544-115.42-64.462m7 12.095c-21.98 2.821-47.583 16.042-61.831 31.93-11.281 12.58-20.256 31.783-23.105 49.437-6.713 41.597 15.742 83.243 53.316 98.886 13.775 5.734 18.622 6.622 35.62 6.527 13.832-.078 16.458-.378 24.4-2.789 18.663-5.666 33.467-14.488 45.409-27.059 8.563-9.015 12.359-14.505 17.21-24.892 6.993-14.969 9.622-31.369 7.917-49.369-2.342-24.719-15.446-50.011-33.471-64.601-7.655-6.197-21.764-13.159-31.965-15.773-7.856-2.013-26.012-3.258-33.5-2.297m-5.5 31.574c-8.74 3.054-12.93 9.173-12.295 17.953.469 6.481 7.168 21.058 16.898 36.769 4.888 7.892 5.278 8.275 6.132 6 .502-1.336 1.161-9.854 1.465-18.929.596-17.809-.898-30.081-4.716-38.75-1.967-4.467-2.635-4.738-7.484-3.043m21.141 1.521c-4.17 8.063-5.136 15.108-5.138 37.472-.002 14.241.369 22.073 1.08 22.783.776.776 2.937-2.107 7.647-10.2C423.577 289.281 428 278.886 428 271.72c0-6.966-6.253-13.431-14.69-15.188-2.809-.585-3.367-.323-4.669 2.196m25.461 19.323c-2.893 3.878-7.313 10.515-9.823 14.75-5.628 9.498-15.455 29.356-14.834 29.977.608.609 14.092-6.828 24.055-13.268 18.367-11.871 21.919-22.591 11.303-34.108-2.232-2.421-4.369-4.402-4.75-4.402-.38 0-3.059 3.173-5.951 7.051m-75.351-2.801c-3.587 3.819-6.707 10.217-6.707 13.75 0 4.064 3.356 10.241 7.684 14.143 5.18 4.67 30.998 19.857 33.757 19.857.988 0-2.48-7.347-9.204-19.5-9.014-16.293-19.393-31.5-21.498-31.5-.54 0-2.354 1.462-4.032 3.25m75.477 37.389c-12.226 6.952-22.229 12.915-22.23 13.25-.001.336 7.325.386 16.279.111 14.973-.46 16.681-.706 21.252-3.059 6.699-3.448 9.432-8.274 9.455-16.691.011-4.401-.36-6.25-1.256-6.25-.7 0-11.275 5.688-23.5 12.639m-89.712-7.731c-1.225 7.245 2.64 15.503 8.813 18.833 2.508 1.353 6.776 1.82 20.423 2.235 9.488.288 17.251.274 17.25-.031-.003-.796-43.998-24.945-45.445-24.945-.21 0-.678 1.759-1.041 3.908m15.734 24.829c-2.887.202-5.25.837-5.25 1.411 0 1.943 4.142 6.874 7.029 8.367 6.458 3.339 16.497.431 25.971-7.523l3.5-2.938-13 .158c-7.15.087-15.363.323-18.25.525m51.75-.274c0 .254 2.71 2.303 6.022 4.552 6.435 4.37 12.688 6.985 16.703 6.985s9.22-3.026 11.855-6.893l2.457-3.607-4.269-.676c-4.828-.764-32.768-1.073-32.768-.361M341 360.5V371h2.5c2.25 0 2.5-.4 2.5-4 0-3.905.083-4 3.5-4s3.5.095 3.5 4c0 3.808.149 4 3.107 4 2.422 0 2.973-.349 2.5-1.582-.334-.87-.607-5.595-.607-10.5 0-8.846-.02-8.918-2.5-8.918-2.25 0-2.5.4-2.5 4 0 3.905-.083 4-3.5 4s-3.5-.095-3.5-4c0-3.6-.25-4-2.5-4H341zm22-1.761c0 10.698.874 12.267 7.235 12.984 4 .451 4.955.178 7.189-2.056 2.366-2.366 2.576-3.272 2.576-11.122 0-8.411-.039-8.545-2.46-8.545-2.39 0-2.467.232-2.75 8.25l-.29 8.25h-6l-.5-8c-.46-7.357-.681-8.026-2.75-8.32-2.188-.31-2.25-.076-2.25 8.559m23.45-1.489c-1.499 3.988-3.315 8.712-4.037 10.5-1.295 3.21-1.276 3.25 1.521 3.25 1.992 0 2.988-.594 3.356-2 .412-1.577 1.364-2 4.5-2s4.087.423 4.5 2c.353 1.351 1.364 2 3.116 2 1.427 0 2.594-.325 2.594-.723 0-.397-1.68-5.122-3.733-10.5-3.439-9.008-3.944-9.777-6.413-9.777-2.409 0-2.954.732-5.404 7.25m17.413 2.939c2.691 10.125 2.794 10.311 5.684 10.311 2.753 0 3.045-.386 4.534-6l1.592-6 1.943 6.5c1.701 5.689 2.247 6.5 4.378 6.5 2.191 0 2.661-.804 4.677-8 3.851-13.739 3.832-13.5 1.033-13.5-2.185 0-2.6.658-3.785 6-.733 3.3-1.596 6-1.92 6-.323 0-1.243-2.587-2.044-5.75-1.269-5.017-1.79-5.789-4.083-6.055-2.161-.25-2.748.193-3.305 2.5-.373 1.543-1.172 4.605-1.775 6.805l-1.098 4-1.642-6.5c-1.461-5.783-1.934-6.534-4.286-6.811l-2.644-.31zm29.137.194v10.384l2.726.521c1.499.286 5.099.276 8-.023 4.28-.442 5.274-.895 5.274-2.405 0-1.588-.805-1.86-5.5-1.86-4.779 0-5.5-.255-5.5-1.943 0-1.57.814-2.001 4.25-2.25 3.533-.255 4.304-.687 4.57-2.557.291-2.052-.084-2.25-4.25-2.25-3.903 0-4.57-.292-4.57-2 0-1.733.667-2 5-2s5-.267 5-2c0-1.822-.667-2-7.5-2H433zm19 .117V371h5v-21h-5zm-61.393-1.918c-1.11 2.892-.629 4.418 1.393 4.418 2.162 0 2.285-.335 1.37-3.75-.704-2.626-1.901-2.915-2.763-.668m214.848 228.123c-4.041 6.949-13.068 17.736-21.693 25.921-16.742 15.892-36.577 25.924-62.762 31.746-23.368 5.196-36.145 5.473-122.5 2.662-90.492-2.946-99.253-3.568-122.421-8.687-33.123-7.32-58.334-21.698-76.879-43.847-2.303-2.75-4.19-4.38-4.194-3.622-.01 2.331 5.651 11.42 10.699 17.174 17.165 19.57 38.441 31.514 69.295 38.904 22.639 5.423 29.95 5.979 122 9.273 47.477 1.7 94.854 1.667 106.5-.074 23.069-3.448 38.495-8.009 53.915-15.942 22.026-11.331 35.603-25.381 47.62-49.283 4.522-8.994 4.796-11.751.42-4.225m-402.934 39.699c.715 2.375 3.79 11.243 6.833 19.707S219.594 675 225.348 691.5c42.504 121.89 46.981 131.962 68.063 153.123 13.366 13.415 27.508 22.199 46.142 28.66 13.567 4.704 41.452 11.323 41.443 9.838-.002-.342-.829-1.971-1.839-3.621-1.382-2.259-3.914-3.83-10.246-6.358-35.572-14.2-67.866-43.956-82.81-76.302-8.199-17.747-11.469-32.644-11.377-51.84.092-19.33 3.608-32.827 12.443-47.764 4.787-8.093 18.043-20.891 27.175-26.236l7.689-4.5-13.279-1.156c-22.876-1.991-41.722-5.938-59.752-12.514-15.84-5.777-26.962-12.402-39.779-23.696l-8-7.049zm155.668 44.42c-4.034 3.767-6.189 8.824-6.189 14.519 0 4.136.192 4.445 3.125 5.032 1.719.344 14.751.625 28.961.625h25.837l1.098-4.25c1.875-7.258 2.18-8.14 4.188-12.119 1.074-2.128 1.579-4.215 1.122-4.639s-13.001-1.087-27.876-1.473l-27.046-.704zm-18.582.271c-6.242 4.91-9.107 17.363-6.682 29.046 1.577 7.594 2.922 9.271 6.76 8.428l3.039-.667-.497-13.816c-.477-13.262-.394-14.042 2.083-19.451l2.579-5.635h-2.309c-1.271 0-3.509.943-4.973 2.095m86.014 3.062c-5.597 4.619-7.573 9.674-7.599 19.444-.033 12.01 2.085 16.399 7.912 16.399 2.331 0 2.427-.469 2.148-10.5-.268-9.636 1.344-16.859 4.957-22.212 1.68-2.49 2.921-4.646 2.758-4.791s-1.647-.551-3.297-.902c-2.437-.519-3.728-.039-6.879 2.562m-109.261 8.17c-18.666 13.785-28.156 32.558-28.646 56.673-.205 10.07.922 22.697 1.935 21.684.267-.267 1.122-3.527 1.9-7.247 2.998-14.33 10.406-26.127 21.968-34.983l7.483-5.731V700.52c0-7.943.52-13.916 1.489-17.111.819-2.7 1.494-5.021 1.5-5.159.045-1.042-2.638.392-7.629 4.077m126.14-1.333c-1.775 1.961-2.036 3.878-2.321 17.02l-.32 14.811 9.82 4.88c19.379 9.628 34.231 21.377 46.756 36.988 7.76 9.672 16.661 24.866 20.171 34.432 9.27 25.264 8.144 49.158-3.105 65.873l-3.344 4.97 5.762-3.913c13.672-9.285 24.829-25.455 28.672-41.555 2.161-9.053 2.184-29.431.043-38.612-9.543-40.935-38.594-73.659-81.908-92.262-4.75-2.04-10.794-3.964-13.431-4.276-4.094-.484-5.088-.243-6.795 1.644m-88.168 23.256c.305 1.788.854 7.141 1.221 11.898.736 9.553 1.167 8.852-6.373 10.372-2.468.498-3.624.255-4.502-.945-1.074-1.47-1.642-1.478-6.308-.092-7.605 2.258-13.502 5.905-19.044 11.776-13.446 14.245-15.668 32.975-6.535 55.062 13.747 33.241 46.325 58.666 86.209 67.282 11.704 2.528 42.12 2.645 53.069.204 17.162-3.827 27.262-9.13 36.791-19.317 8.748-9.351 10.585-14.662 10.545-30.49-.029-11.518-.276-13.147-3.144-20.739-10.783-28.536-38.969-55.267-67.081-63.615-5.078-1.508-5.18-1.497-5.18.55 0 1.962-.374 2.05-6.169 1.444-3.393-.355-6.344-.82-6.558-1.034-.215-.214-.852-4.826-1.418-10.248-1.566-15.019-1.067-13.985-7.089-14.708-2.896-.348-15.104-.637-27.127-.641L353.777 701zm154.214 133.211c-4.435 9.068-17.617 21.679-29.307 28.039-8.139 4.428-9.194 5.316-9.215 7.763l-.024 2.764 3.613-1.51c15.947-6.663 32.37-22.919 36.884-36.509 2.413-7.263 1.464-7.529-1.951-.547M353 854.577c0 .224 4.997 2.912 11.103 5.975 6.107 3.063 10.942 5.082 10.744 4.488-.341-1.023-21.847-11.322-21.847-10.463m36 15.127c0 .524 1.353 2.996 3.008 5.494 6.976 10.532 22.849 16.654 40.347 15.563C446.2 889.897 455 883.36 455 873.94c0-3.095-.076-3.146-3.75-2.535-2.062.344-11.4.892-20.75 1.218-16.469.575-21.762.13-38.25-3.214-1.855-.376-3.25-.25-3.25.295"/>
</svg>
