<?xml version="1.0" standalone="no"?>
<!DOCTYPE svg PUBLIC "-//W3C//DTD SVG 20010904//EN"
 "http://www.w3.org/TR/2001/REC-SVG-20010904/DTD/svg10.dtd">
<svg version="1.0" xmlns="http://www.w3.org/2000/svg"
 width="128.000000pt" height="128.000000pt" viewBox="0 0 128.000000 128.000000"
 preserveAspectRatio="xMidYMid meet">
<g transform="translate(0.000000,128.000000) scale(0.100000,-0.100000)"
fill="#000000" stroke="none">
<path d="M198 1233 l-96 -25 -6 -82 c-18 -255 -18 -277 2 -283 18 -4 19 -16
19 -179 0 -138 -3 -174 -14 -174 -10 0 -13 -36 -13 -177 l0 -178 124 -58 123
-59 354 31 c195 17 373 34 397 37 l42 5 0 139 0 139 38 3 37 3 0 285 0 285
-60 3 -60 3 1 135 c1 85 -2 137 -9 141 -10 6 -225 15 -617 26 -152 5 -172 3
-262 -20z m102 -145 c-1 -137 -2 -151 -15 -134 -11 15 -15 51 -15 147 0 120 2
130 28 138 1 1 2 -68 2 -151z m130 103 c0 -28 3 -52 8 -54 4 -3 127 -8 275
-12 l267 -8 0 52 0 52 43 -3 42 -3 3 -132 3 -133 -46 0 c-37 0 -45 3 -45 19 0
15 -11 19 -77 25 -42 3 -163 6 -270 6 -186 0 -193 -1 -193 -20 0 -15 -7 -20
-29 -20 -16 0 -43 -3 -60 -6 l-31 -6 0 146 0 146 55 0 55 0 0 -49z m360 33
l175 -6 -3 -39 -4 -39 -97 0 c-53 0 -167 3 -253 7 l-158 6 0 42 0 41 83 -3
c45 -1 161 -6 257 -9z m-547 -34 c-4 -4 -29 -12 -54 -18 -26 -7 -54 -14 -63
-18 -12 -4 -16 0 -16 15 0 15 10 23 43 31 23 6 53 15 67 19 18 6 26 4 28 -7 2
-8 0 -18 -5 -22z m7 -114 c0 -52 5 -107 10 -122 10 -26 12 -27 70 -21 l60 7 0
-274 0 -275 -32 10 c-46 13 -85 11 -95 -3 -4 -7 -10 -68 -13 -134 l-5 -121
-70 26 -70 27 -3 102 c-3 87 -1 102 12 102 14 0 16 30 16 260 0 230 -2 260
-16 260 -14 0 -15 13 -9 103 4 56 10 105 14 109 5 6 100 34 124 37 4 1 7 -41
7 -93z m708 -101 c6 -2 12 -9 12 -15 0 -8 -69 -10 -247 -5 -251 7 -278 9 -270
22 5 8 482 6 505 -2z m115 -44 c98 -1 117 -3 117 -16 0 -14 -34 -16 -276 -15
-242 2 -278 0 -293 -15 -15 -13 -38 -16 -115 -14 l-96 1 0 37 0 36 272 -6
c150 -4 326 -7 391 -8z m-953 -57 c0 -13 -4 -24 -10 -24 -5 0 -10 14 -10 31 0
17 4 28 10 24 6 -3 10 -17 10 -31z m888 9 l182 -6 0 -247 0 -247 -282 -12
c-156 -7 -331 -16 -390 -20 l-108 -6 0 257 0 258 104 0 c80 0 106 3 116 15 14
17 88 19 378 8z m-888 -443 c0 -16 -4 -30 -10 -30 -5 0 -10 14 -10 30 0 17 5
30 10 30 6 0 10 -13 10 -30z m270 -81 c0 -15 -5 -16 -42 -8 -68 16 -68 16 -68
-141 0 -87 -4 -140 -10 -140 -6 0 -10 54 -10 143 0 178 5 189 79 173 37 -7 51
-15 51 -27z m620 -7 c0 -12 -492 -41 -504 -30 -13 10 -31 9 209 23 280 16 295
16 295 7z m100 -122 l0 -130 -45 0 -45 0 0 38 c0 21 -2 41 -4 43 -8 7 -520
-36 -534 -45 -9 -6 -11 -20 -7 -46 6 -37 6 -37 -32 -43 -21 -4 -53 -7 -70 -7
l-33 0 0 148 0 147 74 -3 c64 -3 75 -6 79 -23 4 -15 11 -19 29 -15 13 3 109
10 213 16 248 14 285 18 285 36 0 10 13 14 45 14 l45 0 0 -130z m-787 -38 c2
-108 -1 -142 -10 -142 -10 0 -13 36 -13 146 0 98 3 145 11 142 6 -2 11 -56 12
-146z m-137 -44 c52 -19 64 -27 64 -45 0 -21 -1 -21 -72 11 -39 18 -74 38 -76
44 -5 17 11 15 84 -10z m820 -17 c1 -18 -3 -34 -9 -35 -7 -2 -106 -11 -222
-20 -116 -9 -227 -19 -248 -22 l-38 -6 3 39 3 38 245 21 c135 12 249 20 254
19 5 0 11 -16 12 -34z"/>
<path d="M365 1210 c-8 -14 3 -30 21 -30 8 0 14 9 14 20 0 21 -24 28 -35 10z"/>
<path d="M1010 1185 c0 -8 7 -15 15 -15 8 0 15 7 15 15 0 8 -7 15 -15 15 -8 0
-15 -7 -15 -15z"/>
<path d="M200 1140 c-12 -8 -12 -10 5 -11 l20 0 -20 -9 c-11 -5 -29 -8 -40 -8
-17 0 -17 1 -2 5 9 2 17 8 17 13 0 4 -9 6 -19 3 -12 -3 -19 -13 -18 -24 1 -14
6 -17 20 -13 19 6 45 12 60 13 4 1 7 10 7 21 0 22 -7 25 -30 10z"/>
<path d="M140 230 c0 -5 10 -10 23 -10 18 0 19 2 7 10 -19 13 -30 13 -30 0z"/>
<path d="M200 210 c20 -13 33 -13 25 0 -3 6 -14 10 -23 10 -15 0 -15 -2 -2
-10z"/>
<path d="M150 200 c20 -13 33 -13 25 0 -3 6 -14 10 -23 10 -15 0 -15 -2 -2
-10z"/>
<path d="M190 191 c0 -5 9 -11 20 -14 24 -6 27 8 4 17 -21 8 -24 8 -24 -3z"/>
<path d="M610 705 l0 -95 275 0 275 0 0 95 0 95 -275 0 -275 0 0 -95z m491 55
c24 0 26 -3 28 -52 1 -33 -2 -54 -11 -59 -7 -5 -117 -9 -244 -9 l-232 0 -3 43
c-8 92 -27 85 219 81 119 -2 229 -4 243 -4z"/>
<path d="M486 252 c-3 -5 1 -9 9 -9 8 0 12 4 9 9 -3 4 -7 8 -9 8 -2 0 -6 -4
-9 -8z"/>
<path d="M1060 135 c0 -8 7 -15 15 -15 8 0 15 7 15 15 0 8 -7 15 -15 15 -8 0
-15 -7 -15 -15z"/>
<path d="M390 85 c0 -8 9 -15 20 -15 11 0 20 7 20 15 0 8 -9 15 -20 15 -11 0
-20 -7 -20 -15z"/>
</g>
</svg>
