<svg xmlns="http://www.w3.org/2000/svg" viewBox="0 0 500 500">
  <path fill-rule="evenodd" d="M97 2Q84 4 75 13l-5 5-9 2-10 2v6c2 1 1 7-1 8-3 1-3 0-3 63 0 61 0 63 3 63s3 14 0 16l-3 1v84c0 88 0 85 4 86l3 1v9c0 10 0 10 10 13q12 2 10 5 0 5 20 8l9 2h28l48-4h9v4q-1 6 8 5 8 1 7-6 2-11 4 2c0 10 1 11 12 11s12-1 12-11l2-9 1 5c0 7 1 7 8 8 11 1 13-1 14-9q1-10 2-1 1 10 15 8 8-1 7-9v-6l16-1c33-3 47-13 50-37 2-12 1-288-1-294q-8-23-34-28l-24-2-94-7c-78-6-86-7-96-4m47 8 117 9c61 5 63 5 72 17 6 9 5 0 5 123v110h-4a6944 6944 0 0 1-249 5l1-241q4-25 29-25zm-61 6-4 9-2 5v158c0 178-1 172 7 183q4 6-4-2c-10-11-9 0-10-176C70 16 70 26 80 16q8-6 3 0m-15 7q0 4-5 3h-6q-5 0 4-2zm-10 9q0 3-2 2l-1-2 1-2q2 0 2 2m128 4c-17 5-20 29-3 36 3 1 47 3 61 2 22-1 27-27 7-35-4-2-60-5-65-3M66 98c0 52-1 62-2 62l-6-1-6-2V40l5-1 7-2h2zm132-54c10 5 8 20-3 22-13 2-19-17-7-22q5-3 10 0m24 6q-1 4 3 4 6 1 0 4-4-1-3 3-3 5-4-1 0-2-3-3-5-1-1-4h3l1-1q-1-5 2-5 2 0 2 3m25 3c2 7 2 7-2 9l-4 2-4-2q-6-1-4-6l1-4q1-5 4-2 2 3 5 0 1-4 4 3m-61 1q-2 2 8 2 7 1 6-2c0-1-13-2-14 0M58 169q0 7-2 6l-1-6 1-6q2-1 2 6m8 93-1 86-12-3-1-82v-82l6-2 7-2zm272 45v33l-3 6c-6 13-15 18-39 20l-93 7c-102 9-99 9-109-2-9-9-9-13-9-57v-35h34l215-6h4zM60 359v6l3 1 10 4-10-2-5-1v-8l1-8zm21 18 4 3-8-3q-2-3 4 0m194 1q1 3-8 3l-4-2q-3-3 8-3l4-1zm-24 2c0 3-8 5-11 2q-4-3 4-4 8 0 7 2m-24 1c1 3-10 6-15 4q-5-4 4-4zm-28 4q1 3-4 3-6-2-1-5 6-1 5 2m27 5q1 5-8 4-8 1-7-4l1-2 6-1c9 0 8 0 8 3"/>
</svg>
